# Blender v2.81 (sub 16) OBJ File: 'playing-card.blend'
# www.blender.org
mtllib playing-card.mtl
o card-colour
v 2.452395 -2.392463 0.000000
v -2.550380 5.000000 0.000000
v -2.547604 5.000000 0.000000
v 2.452396 5.000000 -0.000000
v 2.449620 5.000000 0.000000
v 2.449622 -2.392463 -0.000000
v -2.547604 -2.392463 0.000000
v -2.550380 -2.392463 -0.000000
vt 0.500000 1.000000
vt 0.500000 0.260754
vt 1.000000 0.260754
vt 1.000000 1.000000
vt 0.000000 0.260754
vt 0.500000 0.260754
vt 0.500000 1.000000
vt 0.000000 1.000000
vn -0.0000 -0.0000 -1.0000
vn 0.0000 -0.0000 1.0000
usemtl card-colour
s off
f 4/1/1 1/2/1 7/3/1 3/4/1
f 8/5/2 6/6/2 5/7/2 2/8/2
